<svg width="152" height="189" viewBox="0 0 152 189" fill="none" xmlns="http://www.w3.org/2000/svg">
<path d="M119 185H19C10.7157 185 4 178.284 4 170V33C4 24.7157 10.7157 18 19 18H91.3521C94.9061 18 98.3448 19.262 101.055 21.561L128.703 45.013C132.063 47.863 134 52.0461 134 56.452V170C134 178.284 127.284 185 119 185Z" stroke="#FE5D2F" stroke-width="8"/>
<path d="M148 55.9V155C148 162.732 141.732 169 134 169H32C24.268 169 18 162.732 18 155V18C18 10.268 24.268 4 32 4H93.6625V49.9C93.6625 53.2137 96.3488 55.9 99.6625 55.9H148ZM101.662 9.35199L142.021 47.9H101.662V9.35199Z" fill="white" stroke="#FE5D2F" stroke-width="8"/>
<path d="M96.8125 77.9219L65.5943 109.14" stroke="#FE5D2F" stroke-width="8" stroke-linecap="round"/>
<path d="M65.5938 77.9219L96.8119 109.14" stroke="#FE5D2F" stroke-width="8" stroke-linecap="round"/>
</svg>
